<svg xmlns="http://www.w3.org/2000/svg" version="1.1" xmlns:xlink="http://www.w3.org/1999/xlink" width="1000" height="1000"><style>
    #light-icon {
      display: inline;
    }
    #dark-icon {
      display: none;
    }

    @media (prefers-color-scheme: dark) {
      #light-icon {
        display: none;
      }
      #dark-icon {
        display: inline;
      }
    }
  </style><g id="light-icon"><svg xmlns="http://www.w3.org/2000/svg" version="1.1" xmlns:xlink="http://www.w3.org/1999/xlink" width="1000" height="1000"><g clip-path="url(#SvgjsClipPath1422)"><rect width="1000" height="1000" fill="#ffffff"></rect><g transform="matrix(3.90625,0,0,3.90625,0,0)"><svg xmlns="http://www.w3.org/2000/svg" version="1.1" xmlns:xlink="http://www.w3.org/1999/xlink" width="256" height="256"><svg width="256" height="256" viewBox="0 0 256 256" fill="none" xmlns="http://www.w3.org/2000/svg">
<rect width="256" height="256" fill="#1E1E1E"></rect>
<rect width="256" height="256" fill="#4F46E5"></rect>
<path d="M88.0537 177.5C54.7537 177.5 34.0537 157.1 34.0537 125.75C34.0537 94.4 54.7537 74 88.0537 74C122.104 74 142.654 94.4 142.654 125.75C142.654 157.1 122.104 177.5 88.0537 177.5ZM88.0537 155.9C110.104 155.9 118.654 148.1 118.654 125.75C118.654 103.4 110.104 95.6 88.0537 95.6C66.0037 95.6 57.9037 103.4 57.9037 125.75C57.9037 148.1 66.0037 155.9 88.0537 155.9ZM155.466 176H132.966V75.5H185.466C208.716 75.5 223.716 88.7 223.716 111.8C223.716 134.9 208.716 148.25 185.466 148.25H155.466V176ZM183.066 95.75H155.466V128H183.066C195.516 128 201.366 124.4 201.366 111.8C201.366 99.5 195.516 95.75 183.066 95.75Z" fill="white"></path>
</svg></svg></g></g><defs><clipPath id="SvgjsClipPath1422"><rect width="1000" height="1000" x="0" y="0" rx="200" ry="200"></rect></clipPath></defs></svg></g><g id="dark-icon"><svg xmlns="http://www.w3.org/2000/svg" version="1.1" xmlns:xlink="http://www.w3.org/1999/xlink" width="1000" height="1000"><g clip-path="url(#SvgjsClipPath1423)"><rect width="1000" height="1000" fill="#ffffff"></rect><g transform="matrix(3.90625,0,0,3.90625,0,0)"><svg xmlns="http://www.w3.org/2000/svg" version="1.1" xmlns:xlink="http://www.w3.org/1999/xlink" width="256" height="256"><svg width="256" height="256" viewBox="0 0 256 256" fill="none" xmlns="http://www.w3.org/2000/svg">
<rect width="256" height="256" fill="#1E1E1E"></rect>
<rect width="256" height="256" fill="#4F46E5"></rect>
<path d="M88.0537 177.5C54.7537 177.5 34.0537 157.1 34.0537 125.75C34.0537 94.4 54.7537 74 88.0537 74C122.104 74 142.654 94.4 142.654 125.75C142.654 157.1 122.104 177.5 88.0537 177.5ZM88.0537 155.9C110.104 155.9 118.654 148.1 118.654 125.75C118.654 103.4 110.104 95.6 88.0537 95.6C66.0037 95.6 57.9037 103.4 57.9037 125.75C57.9037 148.1 66.0037 155.9 88.0537 155.9ZM155.466 176H132.966V75.5H185.466C208.716 75.5 223.716 88.7 223.716 111.8C223.716 134.9 208.716 148.25 185.466 148.25H155.466V176ZM183.066 95.75H155.466V128H183.066C195.516 128 201.366 124.4 201.366 111.8C201.366 99.5 195.516 95.75 183.066 95.75Z" fill="white"></path>
</svg></svg></g></g><defs><clipPath id="SvgjsClipPath1423"><rect width="1000" height="1000" x="0" y="0" rx="200" ry="200"></rect></clipPath></defs></svg></g></svg>