<?xml version="1.0" encoding="UTF-8"?>
<svg id="Calque_2" data-name="Calque 2" xmlns="http://www.w3.org/2000/svg" viewBox="0 0 669.74 298.36">
  <defs>
    <style>
      .cls-1 {
        fill: #fff;
      }
    </style>
  </defs>
  <g id="Calque_1-2" data-name="Calque 1">
    <g>
      <path class="cls-1" d="M0,72.39C0,28.54,28.96,0,75.54,0s76.38,28.54,76.38,72.39-28.75,72.39-76.38,72.39S0,116.24,0,72.39ZM118.34,72.39c0-31.26-11.96-42.17-42.8-42.17s-42.18,10.91-42.18,42.17,11.33,42.18,42.18,42.18,42.8-10.91,42.8-42.18Z"/>
      <path class="cls-1" d="M165.55,142.68V2.1h31.47v140.58h-31.47Z"/>
      <path class="cls-1" d="M213.59,26.86V2.1h31.47v24.76h-31.47ZM213.59,142.68V37.56h31.47v105.12h-31.47Z"/>
      <path class="cls-1" d="M301.09,142.68l-47.84-105.12h35.04l31.47,74.49h2.1l31.68-74.49h34.41l-48.05,105.12h-38.82Z"/>
      <path class="cls-1" d="M396.35,26.86V2.1h31.47v24.76h-31.47ZM396.35,142.68V37.56h31.47v105.12h-31.47Z"/>
      <path class="cls-1" d="M441.24,90.23c0-33.57,23.71-54.76,58.33-54.76s57.28,18.04,57.28,50.99c0,3.78-.42,6.5-.84,10.07h-85.61c.84,16.16,8.39,23.08,28.75,23.08,18.67,0,25.18-4.83,25.18-13.85v-2.1h31.47v2.31c0,22.87-22.24,38.82-55.6,38.82-35.04,0-58.96-17.21-58.96-54.55ZM470.83,79.94h55.81c-.84-13.85-9.23-19.93-27.7-19.93s-26.65,6.29-28.12,19.93Z"/>
      <path class="cls-1" d="M570.28,142.68V37.56h29.17v27.91h1.89c2.94-17,14.06-30.01,35.25-30.01,23.5,0,33.15,16.16,33.15,36.72v17.42h-31.47v-10.91c0-11.54-4.62-16.58-17.42-16.58-14.06,0-19.09,6.5-19.09,19.72v60.85h-31.47Z"/>
    </g>
    <g>
      <path class="cls-1" d="M1.07,272.23v-102.98h53.8c23.82,0,39.2,13.53,39.2,37.2s-15.37,37.35-39.2,37.35h-30.74v28.44H1.07ZM24.13,189.99v33.05h28.28c12.76,0,18.75-3.69,18.75-16.6s-5.99-16.45-18.75-16.45h-28.28Z"/>
      <path class="cls-1" d="M99.3,233.8c0-24.59,17.68-40.12,43.96-40.12s43.96,15.52,43.96,40.12-17.68,39.96-43.96,39.96-43.96-15.68-43.96-39.96ZM164.32,233.8c0-13.53-5.53-19.83-21.06-19.83s-21.06,6.3-21.06,19.83,5.38,19.52,21.06,19.52,21.06-5.99,21.06-19.52Z"/>
      <path class="cls-1" d="M196.45,243.18v-47.96h23.06v40.27c0,12.45,5.23,17.68,19.83,17.68s20.44-5.84,20.44-18.91v-39.04h23.06v77.01h-21.52v-23.52h-1.23c-2,12.91-11.37,25.05-31.66,25.05-21.67,0-31.97-13.37-31.97-30.59Z"/>
      <path class="cls-1" d="M292.37,233.8c0-24.59,16.91-40.12,43.35-40.12,24.75,0,41.65,13.22,41.65,33.2v2.15h-22.9v-1.23c0-9.84-7.22-13.37-19.21-13.37-13.68,0-19.98,5.07-19.98,19.37s6.3,19.21,19.98,19.21c11.99,0,19.21-3.53,19.21-13.37v-1.23h22.9v2.15c0,19.83-16.91,33.2-41.65,33.2-26.44,0-43.35-15.68-43.35-39.96Z"/>
      <path class="cls-1" d="M387.37,272.23v-102.98h23.06v49.49h1.23c2.46-13.07,11.53-25.05,31.2-25.05,20.75,0,30.89,13.53,30.89,31.36v47.19h-23.06v-40.27c0-12.91-5.53-17.52-19.98-17.52-15.52,0-20.29,6.3-20.29,19.21v38.58h-23.06Z"/>
      <path class="cls-1" d="M482.52,233.8c0-24.59,17.68-40.12,43.96-40.12s43.96,15.52,43.96,40.12-17.68,39.96-43.96,39.96-43.96-15.68-43.96-39.96ZM547.53,233.8c0-13.53-5.53-19.83-21.06-19.83s-21.06,6.3-21.06,19.83,5.38,19.52,21.06,19.52,21.06-5.99,21.06-19.52Z"/>
      <path class="cls-1" d="M581.97,298.36v-20.9h18.91c5.69,0,8.15-1.54,9.68-4.92l-37.66-77.31h26.13l16.29,35.2,6.46,18.14h1.54l6.15-18.29,14.6-35.04h25.67l-38.12,82.54c-7.38,16.14-17.68,20.6-37.04,20.6h-12.61Z"/>
    </g>
  </g>
</svg>